<?xml version="1.0" encoding="UTF-8" standalone="no"?>
<!DOCTYPE svg PUBLIC "-//W3C//DTD SVG 1.1//EN" "http://www.w3.org/Graphics/SVG/1.1/DTD/svg11.dtd">
<!-- Created with Vectornator (http://vectornator.io/) -->
<svg height="100%" stroke-miterlimit="10" style="fill-rule:nonzero;clip-rule:evenodd;stroke-linecap:round;stroke-linejoin:round;" version="1.1" viewBox="0 0 1024 1024" width="100%" xml:space="preserve" xmlns="http://www.w3.org/2000/svg" xmlns:vectornator="http://vectornator.io" xmlns:xlink="http://www.w3.org/1999/xlink">
<defs/>
<g id="Capa-1" vectornator:layerName="Capa 1">
<g opacity="1"/>
<g opacity="1" vectornator:layerName="Grupo 1">
<g fill="#bf5e70" opacity="1" stroke="#bf5e70" stroke-linecap="butt" stroke-linejoin="miter" stroke-width="5.38858">
<path d="M303.631 765.623L303.631 755.219C301.754 758.564 299.02 761.38 295.43 763.664C291.839 765.949 287.637 767.092 282.823 767.092C278.335 767.092 274.336 766.235 270.827 764.521C267.318 762.808 264.36 760.482 261.953 757.544C259.546 754.607 257.71 751.159 256.445 747.202C255.18 743.244 254.548 739.021 254.548 734.533C254.548 729.964 255.282 725.68 256.751 721.681C258.22 717.683 260.362 714.215 263.177 711.277C265.992 708.34 269.46 706.014 273.581 704.3C277.702 702.587 282.455 701.73 287.841 701.73C293.227 701.73 297.959 702.587 302.039 704.3C306.119 706.014 309.506 708.36 312.199 711.338C314.891 714.317 316.931 717.785 318.319 721.742C319.706 725.7 320.399 729.964 320.399 734.533L320.399 765.623L303.631 765.623ZM271.562 734.288C271.562 736.818 271.929 739.225 272.663 741.51C273.398 743.795 274.459 745.753 275.846 747.385C277.233 749.017 278.906 750.323 280.864 751.302C282.823 752.281 285.067 752.771 287.596 752.771C290.044 752.771 292.247 752.281 294.206 751.302C296.164 750.323 297.817 749.017 299.163 747.385C300.509 745.753 301.55 743.795 302.284 741.51C303.019 739.225 303.386 736.818 303.386 734.288C303.386 731.759 303.019 729.392 302.284 727.189C301.55 724.986 300.509 723.048 299.163 721.375C297.817 719.702 296.164 718.397 294.206 717.458C292.247 716.52 290.044 716.051 287.596 716.051C285.067 716.051 282.823 716.52 280.864 717.458C278.906 718.397 277.233 719.702 275.846 721.375C274.459 723.048 273.398 724.986 272.663 727.189C271.929 729.392 271.562 731.759 271.562 734.288Z"/>
<path d="M369.406 701.73C374.22 701.73 378.504 702.464 382.258 703.933C386.011 705.402 389.194 707.401 391.805 709.931C394.416 712.46 396.415 715.439 397.802 718.866C399.19 722.293 399.883 725.924 399.883 729.76L399.883 765.623L383.114 765.623L383.114 729.76C383.114 727.883 382.747 726.108 382.013 724.435C381.278 722.762 380.299 721.314 379.075 720.09C377.851 718.866 376.403 717.887 374.73 717.152C373.057 716.418 371.282 716.051 369.406 716.051C367.529 716.051 365.754 716.418 364.081 717.152C362.408 717.887 360.96 718.866 359.736 720.09C358.512 721.314 357.533 722.762 356.798 724.435C356.064 726.108 355.697 727.883 355.697 729.76L355.697 765.623L338.928 765.623L338.928 729.76C338.928 725.924 339.622 722.293 341.009 718.866C342.396 715.439 344.395 712.46 347.006 709.931C349.618 707.401 352.8 705.402 356.554 703.933C360.307 702.464 364.591 701.73 369.406 701.73Z"/>
<path d="M463.7 765.623L463.7 755.219C461.823 758.564 459.089 761.38 455.499 763.664C451.909 765.949 447.706 767.092 442.892 767.092C438.404 767.092 434.405 766.235 430.897 764.521C427.388 762.808 424.43 760.482 422.023 757.544C419.615 754.607 417.779 751.159 416.515 747.202C415.25 743.244 414.617 739.021 414.617 734.533C414.617 729.964 415.352 725.68 416.821 721.681C418.289 717.683 420.431 714.215 423.247 711.277C426.062 708.34 429.53 706.014 433.651 704.3C437.771 702.587 442.525 701.73 447.91 701.73C453.296 701.73 458.029 702.587 462.109 704.3C466.189 706.014 469.575 708.36 472.268 711.338C474.961 714.317 477.001 717.785 478.388 721.742C479.775 725.7 480.469 729.964 480.469 734.533L480.469 765.623L463.7 765.623ZM431.631 734.288C431.631 736.818 431.998 739.225 432.733 741.51C433.467 743.795 434.528 745.753 435.915 747.385C437.302 749.017 438.975 750.323 440.933 751.302C442.892 752.281 445.136 752.771 447.665 752.771C450.113 752.771 452.317 752.281 454.275 751.302C456.233 750.323 457.886 749.017 459.232 747.385C460.579 745.753 461.619 743.795 462.353 741.51C463.088 739.225 463.455 736.818 463.455 734.288C463.455 731.759 463.088 729.392 462.353 727.189C461.619 724.986 460.579 723.048 459.232 721.375C457.886 719.702 456.233 718.397 454.275 717.458C452.317 716.52 450.113 716.051 447.665 716.051C445.136 716.051 442.892 716.52 440.933 717.458C438.975 718.397 437.302 719.702 435.915 721.375C434.528 723.048 433.467 724.986 432.733 727.189C431.998 729.392 431.631 731.759 431.631 734.288Z"/>
<path d="M498.997 676.271L515.766 676.271L515.766 765.623L498.997 765.623L498.997 676.271Z"/>
<path d="M534.295 703.199L551.186 703.199L551.186 765.623L534.295 765.623L534.295 703.199ZM532.214 684.839C532.214 683.37 532.499 682.003 533.071 680.738C533.642 679.473 534.397 678.372 535.335 677.433C536.273 676.495 537.375 675.74 538.64 675.169C539.905 674.598 541.271 674.312 542.74 674.312C544.209 674.312 545.576 674.598 546.841 675.169C548.105 675.74 549.207 676.495 550.145 677.433C551.084 678.372 551.839 679.473 552.41 680.738C552.981 682.003 553.267 683.37 553.267 684.839C553.267 686.307 552.981 687.674 552.41 688.939C551.839 690.204 551.084 691.305 550.145 692.244C549.207 693.182 548.105 693.937 546.841 694.508C545.576 695.079 544.209 695.365 542.74 695.365C541.271 695.365 539.905 695.079 538.64 694.508C537.375 693.937 536.273 693.182 535.335 692.244C534.397 691.305 533.642 690.204 533.071 688.939C532.499 687.674 532.214 686.307 532.214 684.839Z"/>
<path d="M562.86 703.199L573.509 703.199L573.509 687.531L590.278 687.531L590.278 703.199L609.005 703.199L609.005 717.52L590.278 717.52L590.278 747.385C590.278 748.528 590.645 749.466 591.379 750.2C592.114 750.935 593.052 751.302 594.194 751.302L607.781 751.302L607.781 765.623L591.257 765.623C585.626 765.623 581.261 764.052 578.16 760.91C575.059 757.769 573.509 753.424 573.509 747.875L573.509 717.52L562.86 717.52L562.86 703.199Z"/>
<path d="M623.249 739.062L623.249 703.199L640.018 703.199L640.018 739.062C640.018 740.939 640.385 742.714 641.12 744.386C641.854 746.059 642.833 747.508 644.057 748.732C645.281 749.956 646.73 750.935 648.403 751.669C650.075 752.404 651.85 752.771 653.727 752.771C655.604 752.771 657.379 752.404 659.051 751.669C660.724 750.935 662.173 749.956 663.397 748.732C664.621 747.508 665.6 746.059 666.334 744.386C667.069 742.714 667.436 740.939 667.436 739.062L667.436 703.199L684.205 703.199L684.205 739.062C684.205 742.326 683.715 745.427 682.736 748.364C681.757 751.302 680.329 753.954 678.452 756.32C676.575 758.687 674.29 760.727 671.597 762.44C668.905 764.154 665.804 765.378 662.295 766.112L662.295 790.47L645.526 790.47L645.526 766.235C642.017 765.5 638.876 764.276 636.101 762.563C633.327 760.849 630.981 758.809 629.063 756.443C627.146 754.076 625.697 751.404 624.718 748.426C623.739 745.447 623.249 742.326 623.249 739.062Z"/>
<path d="M717.176 738.328C712.28 735.961 708.527 732.575 705.916 728.168C703.304 723.762 701.999 718.866 701.999 713.48L701.999 703.199L718.768 703.199L718.768 713.48C718.768 716.744 719.747 719.6 721.705 722.048C723.664 724.496 726.112 726.088 729.049 726.822L744.961 703.199L763.321 703.199L745.328 729.392C748.184 730.453 750.694 731.861 752.856 733.615C755.018 735.37 756.854 737.369 758.364 739.613C759.874 741.857 761.016 744.305 761.791 746.957C762.566 749.609 762.954 752.363 762.954 755.219L762.954 765.623L746.185 765.623L746.185 755.219C746.185 753.342 745.838 751.608 745.145 750.017C744.451 748.426 743.513 747.018 742.33 745.794C741.146 744.57 739.759 743.57 738.168 742.795C736.577 742.02 734.843 741.592 732.966 741.51L716.809 765.623L698.449 765.623L717.176 738.328Z"/>
</g>
<path d="M271.801 360.715C271.801 237.879 371.379 138.3 494.216 138.3C617.052 138.3 716.631 237.879 716.631 360.715C716.631 483.552 617.052 583.131 494.216 583.131C371.379 583.131 271.801 483.552 271.801 360.715Z" fill="none" opacity="1" stroke="#bf5e70" stroke-linecap="butt" stroke-linejoin="miter" stroke-width="78.0514"/>
<path d="M752.199 356.258L749.741 616.125L657.383 552.563L752.199 356.258Z" fill="#bf5e70" fill-rule="nonzero" opacity="1" stroke="#bf5e70" stroke-linecap="butt" stroke-linejoin="miter" stroke-width="5.38858"/>
<path d="M193.5 55.4814L824.5 55.4814L824.5 841.481L193.5 841.481L193.5 55.4814Z" fill="none" opacity="1" stroke="#bf5e70" stroke-linecap="butt" stroke-linejoin="miter" stroke-width="5.38858"/>
</g>
</g>
</svg>
